<?xml version="1.0" encoding="UTF-8" standalone="no"?><!DOCTYPE svg PUBLIC "-//W3C//DTD SVG 1.1//EN" "http://www.w3.org/Graphics/SVG/1.1/DTD/svg11.dtd"><svg width="100%" height="100%" viewBox="0 0 1250 625" version="1.1" xmlns="http://www.w3.org/2000/svg" xmlns:xlink="http://www.w3.org/1999/xlink" xml:space="preserve" xmlns:serif="http://www.serif.com/" style="fill-rule:evenodd;clip-rule:evenodd;stroke-linejoin:round;stroke-miterlimit:2;"><path d="M0,0l1125.16,0c68.903,0 124.844,55.941 124.844,124.844c0,37.374 -16.458,70.935 -42.524,93.827c26.06,22.884 42.524,56.449 42.524,93.829c0,37.374 -16.458,70.934 -42.524,93.827c26.06,22.884 42.524,56.449 42.524,93.829c0,68.765 -55.717,124.62 -124.441,124.843l-0.403,0.001l-1125.16,-0l0,-625Zm62.033,437.344l1063.12,0c34.666,0 62.811,28.145 62.811,62.812c0,34.666 -28.145,62.811 -62.811,62.811l-1063.12,0l-0,-125.623Zm-0,-187.656l1063.12,0c34.666,0 62.811,28.145 62.811,62.812c0,34.667 -28.145,62.812 -62.811,62.812c-0,-0 -1063.12,-0 -1063.12,-0l-0,-125.624Zm-0,-187.655l1063.12,-0c34.666,-0 62.811,28.145 62.811,62.811c0,34.667 -28.145,62.812 -62.811,62.812l-1063.12,-0c-0,-0 -0,-125.623 -0,-125.623Z" style="fill:#fafafb;"/></svg>