<?xml version="1.0" encoding="UTF-8" standalone="no"?><!DOCTYPE svg PUBLIC "-//W3C//DTD SVG 1.1//EN" "http://www.w3.org/Graphics/SVG/1.1/DTD/svg11.dtd"><svg width="100%" height="100%" viewBox="0 0 1812 1449" version="1.1" xmlns="http://www.w3.org/2000/svg" xmlns:xlink="http://www.w3.org/1999/xlink" xml:space="preserve" xmlns:serif="http://www.serif.com/" style="fill-rule:evenodd;clip-rule:evenodd;stroke-linejoin:round;stroke-miterlimit:2;"><g><path d="M1617.16,6.632l-1617.06,433.29l-0.01,100.877l1617.06,-433.291l0.01,-100.876Z" style="fill:#fafafb;"/><path d="M97.024,1422.69l0.097,-1008.77l-97.023,25.997l-0.098,1008.77l97.024,-25.998Z" style="fill:#fafafb;"/><path d="M1449.1,152.538c33.573,-69.277 96.296,-126.677 168.062,-145.906c107.098,-28.697 194.039,38.407 194.028,149.758c-0.011,111.351 -86.969,225.051 -194.067,253.748c-71.766,19.23 -134.482,-4.558 -168.043,-55.847l168.053,-45.029c53.549,-14.349 97.028,-71.199 97.033,-126.875c0.006,-55.675 -43.465,-89.227 -97.014,-74.879c0,0 -168.052,45.03 -168.052,45.03Z" style="fill:#fafafb;"/><path d="M1617.13,309.262l-1617.06,433.29l-0.009,100.877l1617.06,-433.291l0.01,-100.876Z" style="fill:#fafafb;"/><path d="M1449.07,455.168c33.572,-69.277 96.295,-126.677 168.062,-145.906c107.097,-28.697 194.038,38.407 194.028,149.758c-0.011,111.351 -86.97,225.051 -194.067,253.748c-71.767,19.23 -134.482,-4.559 -168.043,-55.847l168.052,-45.03c53.549,-14.348 97.029,-71.198 97.034,-126.874c0.005,-55.675 -43.465,-89.227 -97.014,-74.879c-0,0 -168.052,45.03 -168.052,45.03Z" style="fill:#fafafb;"/><path d="M1617.1,611.891l-1617.06,433.291l-0.01,100.877l1617.06,-433.291l0.009,-100.877Z" style="fill:#fafafb;"/><path d="M1617.07,914.521l-1617.06,433.291l-0.01,100.877l1617.06,-433.291l0.01,-100.877Z" style="fill:#fafafb;"/><path d="M1449.04,757.798c33.573,-69.277 96.296,-126.677 168.062,-145.907c107.098,-28.696 194.039,38.408 194.028,149.759c-0.01,111.35 -86.969,225.051 -194.067,253.748c-71.766,19.23 -134.481,-4.559 -168.042,-55.847l168.052,-45.03c53.549,-14.348 97.028,-71.198 97.034,-126.874c0.005,-55.675 -43.466,-89.227 -97.014,-74.879c-0,0 -168.053,45.03 -168.053,45.03Z" style="fill:#fafafb;"/></g></svg>